<svg width="124" height="37" viewBox="0 0 124 37" fill="none" xmlns="http://www.w3.org/2000/svg">
    <path d="M48.2497 30.9167H0V33.9167H48.2497V30.9167Z" fill="black" />
    <path
        d="M56.4421 30.7592C56.4421 31.0892 56.3907 31.3795 56.2881 31.63C56.1914 31.8745 56.0617 32.0792 55.8987 32.2442C55.7356 32.4092 55.5484 32.5313 55.3371 32.6108C55.1258 32.6903 54.9085 32.73 54.685 32.73H53.9242V35.3333H52.8555V28.8433H54.6307C54.836 28.8433 55.0473 28.8738 55.2647 28.935C55.482 28.9962 55.6752 29.103 55.8443 29.2558C56.0194 29.4025 56.1613 29.598 56.27 29.8425C56.3848 30.087 56.4421 30.3925 56.4421 30.7592ZM55.4096 30.7683C55.4096 30.42 55.3281 30.1663 55.165 30.0075C55.002 29.8487 54.7937 29.7692 54.5401 29.7692H53.9242V31.8317H54.5401C54.7937 31.8317 55.002 31.743 55.165 31.5658C55.3281 31.3825 55.4096 31.1167 55.4096 30.7683ZM59.6495 35.3333L59.3325 33.9583H57.6478L57.3218 35.3333H56.2349L57.829 28.8433H59.2147L60.7816 35.3333H59.6495ZM58.5173 29.8792H58.4811L57.7837 33.0967H59.1966L58.5173 29.8792ZM64.0137 35.3333L63.0174 32.565H62.4106V35.3333H61.3599V28.8433H63.1895C63.4551 28.8433 63.6996 28.88 63.9231 28.9533C64.1466 29.0205 64.3368 29.1305 64.4937 29.2833C64.6567 29.4362 64.7835 29.6287 64.8741 29.8608C64.9647 30.093 65.0099 30.3712 65.0099 30.695C65.0099 30.9455 64.9767 31.1687 64.9103 31.3642C64.8499 31.5537 64.7715 31.7155 64.6748 31.85C64.5782 31.9845 64.4695 32.0945 64.3488 32.18C64.234 32.2595 64.1194 32.3145 64.0046 32.345L65.1549 35.3333H64.0137ZM63.9412 30.75C63.9412 30.5545 63.914 30.3925 63.8597 30.2642C63.8053 30.1358 63.7329 30.035 63.6423 29.9617C63.5578 29.8883 63.4612 29.8363 63.3525 29.8058C63.2438 29.7753 63.1351 29.76 63.0264 29.76H62.4106V31.7583H63.0264C63.2921 31.7583 63.5094 31.6758 63.6785 31.5108C63.8536 31.3397 63.9412 31.0862 63.9412 30.75ZM65.9129 35.3333V28.8433H66.9997V35.3333H65.9129ZM70.7283 30.0992C70.4928 29.812 70.197 29.6683 69.8407 29.6683C69.7381 29.6683 69.6385 29.6867 69.5418 29.7233C69.4453 29.7538 69.3577 29.8058 69.2791 29.8792C69.2007 29.9525 69.1373 30.0472 69.0889 30.1633C69.0468 30.2795 69.0255 30.417 69.0255 30.5758C69.0255 30.8508 69.107 31.0647 69.2701 31.2175C69.4331 31.3642 69.6475 31.5047 69.9131 31.6392C70.0702 31.7187 70.2301 31.8103 70.3932 31.9142C70.5562 32.018 70.7042 32.1433 70.837 32.29C70.9698 32.4367 71.0785 32.6108 71.163 32.8125C71.2477 33.0142 71.2898 33.2525 71.2898 33.5275C71.2898 33.8453 71.2386 34.1263 71.1358 34.3708C71.0393 34.6153 70.9064 34.823 70.7373 34.9942C70.5743 35.1592 70.3811 35.2845 70.1577 35.37C69.9344 35.4555 69.6989 35.4983 69.4512 35.4983C69.095 35.4983 68.766 35.428 68.464 35.2875C68.1621 35.147 67.9206 34.9697 67.7394 34.7558L68.3281 33.9492C68.4671 34.1203 68.6331 34.2547 68.8263 34.3525C69.0255 34.4503 69.2279 34.4992 69.4331 34.4992C69.6627 34.4992 69.8529 34.4197 70.0037 34.2608C70.1547 34.102 70.2301 33.8788 70.2301 33.5917C70.2301 33.3105 70.1396 33.0875 69.9584 32.9225C69.7773 32.7575 69.5479 32.6047 69.2701 32.4642C69.095 32.3787 68.929 32.2838 68.7719 32.18C68.6211 32.0762 68.4852 31.9538 68.3644 31.8133C68.2498 31.6667 68.156 31.4987 68.0836 31.3092C68.0172 31.1137 67.984 30.8813 67.984 30.6125C67.984 30.2763 68.0353 29.9892 68.1379 29.7508C68.2466 29.5063 68.3856 29.3047 68.5546 29.1458C68.7298 28.987 68.9259 28.8708 69.1433 28.7975C69.3606 28.718 69.5811 28.6783 69.8044 28.6783C70.1305 28.6783 70.4203 28.7333 70.6739 28.8433C70.9336 28.9472 71.151 29.103 71.326 29.3108L70.7283 30.0992Z"
        fill="black" />
    <path d="M123.836 30.9167H75.5859V33.9167H123.836V30.9167Z" fill="black" />
    <path
        d="M26.6798 22.3554H23.9297L27.5016 11.5165H30.9083L34.4802 22.3554H31.7302L29.2437 14.2474H29.1609L26.6798 22.3554ZM26.3127 18.0897H32.061V20.0797H26.3127V18.0897Z"
        fill="black" />
    <path d="M37.5237 11.5165V22.3554H34.9648V11.5165H37.5237Z" fill="black" />
    <path
        d="M40.9492 22.3554V11.5165H48.3309V13.644H43.5079V15.8669H47.9535V17.9999H43.5079V20.2279H48.3309V22.3554H40.9492Z"
        fill="black" />
    <path
        d="M51.8051 17.7192V22.3554H49.2773V14.2262H51.6811V15.7186H51.7689C51.9447 15.2212 52.2445 14.8313 52.6683 14.549C53.0924 14.2633 53.5973 14.1204 54.183 14.1204C54.7412 14.1204 55.2256 14.2491 55.6356 14.5067C56.0493 14.7607 56.3696 15.1171 56.5971 15.5757C56.828 16.0309 56.9416 16.5637 56.9383 17.1742V22.3554H54.4106V17.6822C54.4139 17.2307 54.3019 16.8777 54.0745 16.6237C53.8505 16.3696 53.5386 16.2427 53.1388 16.2427C52.8735 16.2427 52.6392 16.3026 52.4358 16.4225C52.2359 16.5389 52.0809 16.7065 51.9706 16.9254C51.8637 17.1442 51.8087 17.4087 51.8051 17.7192Z"
        fill="black" />
    <path
        d="M61.5493 25.5732C60.7946 25.5732 60.1484 25.4655 59.6109 25.2504C59.0733 25.0352 58.6512 24.7405 58.3444 24.3665C58.0378 23.9925 57.8533 23.569 57.7913 23.0964L60.1846 22.9589C60.2296 23.1245 60.3123 23.2692 60.4328 23.3929C60.557 23.5162 60.7172 23.6114 60.9135 23.6785C61.1134 23.7455 61.3477 23.779 61.6167 23.779C62.0405 23.779 62.3901 23.6732 62.666 23.4615C62.9451 23.2534 63.0847 22.8882 63.0847 22.3659V20.937H62.9968C62.8968 21.1875 62.7452 21.4117 62.5418 21.6092C62.3384 21.8067 62.0852 21.962 61.782 22.0749C61.4821 22.1879 61.1376 22.2444 60.7482 22.2444C60.1692 22.2444 59.6386 22.1067 59.1559 21.8315C58.6769 21.5529 58.2927 21.1222 58.0032 20.54C57.7172 19.9544 57.5742 19.2012 57.5742 18.2802C57.5742 17.331 57.7224 16.5495 58.0188 15.9356C58.3151 15.3182 58.7027 14.8613 59.1819 14.5649C59.6643 14.2685 60.183 14.1204 60.7378 14.1204C61.1547 14.1204 61.5116 14.1944 61.8078 14.3426C62.1077 14.4873 62.3541 14.6743 62.5471 14.9036C62.7399 15.1329 62.8866 15.3711 62.9864 15.618H63.0587V14.2262H65.5763V22.3872C65.5763 23.0752 65.4073 23.6555 65.0697 24.1284C64.732 24.6012 64.2598 24.9594 63.6532 25.2029C63.0467 25.4497 62.3455 25.5732 61.5493 25.5732ZM61.627 20.3602C61.9336 20.3602 62.1955 20.2772 62.4125 20.1115C62.6297 19.9455 62.7969 19.7074 62.9141 19.397C63.0312 19.0864 63.0898 18.7142 63.0898 18.2802C63.0898 17.8392 63.0312 17.4599 62.9141 17.1424C62.8003 16.8212 62.6332 16.5743 62.4125 16.4014C62.1955 16.2285 61.9336 16.1421 61.627 16.1421C61.3133 16.1421 61.0479 16.2303 60.8308 16.4067C60.6136 16.5831 60.4483 16.8319 60.3347 17.153C60.2243 17.4704 60.1692 17.8464 60.1692 18.2802C60.1692 18.7142 60.226 19.0864 60.3398 19.397C60.4536 19.7074 60.6172 19.9455 60.8308 20.1115C61.0479 20.2772 61.3133 20.3602 61.627 20.3602Z"
        fill="black" />
    <path
        d="M66.531 22.3553V14.2262H69.0587V22.3553H66.531ZM67.7975 13.2788C67.4426 13.2788 67.1376 13.1589 66.8825 12.919C66.6275 12.6755 66.5 12.3827 66.5 12.0404C66.5 11.7017 66.6275 11.4124 66.8825 11.1724C67.1376 10.929 67.4426 10.8073 67.7975 10.8073C68.1558 10.8073 68.4609 10.929 68.7124 11.1724C68.9675 11.4124 69.0949 11.7017 69.0949 12.0404C69.0949 12.3827 68.9675 12.6755 68.7124 12.919C68.4609 13.1589 68.1558 13.2788 67.7975 13.2788Z"
        fill="black" />
    <path
        d="M72.5434 17.7192V22.3554H70.0156V14.2262H72.4194V15.7186H72.5072C72.683 15.2212 72.9827 14.8313 73.4066 14.549C73.8305 14.2633 74.3355 14.1204 74.9213 14.1204C75.4795 14.1204 75.9638 14.2491 76.3739 14.5067C76.7874 14.7607 77.108 15.1171 77.3352 15.5757C77.5661 16.0309 77.6799 16.5637 77.6765 17.1742V22.3554H75.1487V17.6822C75.1522 17.2307 75.0402 16.8777 74.8126 16.6237C74.5888 16.3696 74.2767 16.2427 73.8771 16.2427C73.6116 16.2427 73.3773 16.3026 73.1739 16.4225C72.9742 16.5389 72.819 16.7065 72.7087 16.9254C72.6018 17.1442 72.5468 17.4087 72.5434 17.7192Z"
        fill="black" />
    <path
        d="M82.2978 22.5089C81.4674 22.5089 80.7504 22.3414 80.1473 22.0062C79.5478 21.6674 79.086 21.1857 78.7619 20.5612C78.4415 19.9332 78.2812 19.187 78.2812 18.3225C78.2812 17.4829 78.4431 16.7489 78.7672 16.1209C79.0911 15.4893 79.5478 14.999 80.137 14.6496C80.7263 14.2968 81.4208 14.1204 82.2203 14.1204C82.7854 14.1204 83.3023 14.2103 83.7712 14.3903C84.2397 14.5702 84.6446 14.8366 84.9858 15.1894C85.327 15.5422 85.5925 15.978 85.782 16.4966C85.9716 17.0119 86.0662 17.6027 86.0662 18.2697V18.9154H79.1652V17.4124H83.7142C83.7107 17.137 83.647 16.8919 83.5228 16.6767C83.3988 16.4614 83.2282 16.2938 83.0112 16.1738C82.7976 16.0504 82.5511 15.9886 82.272 15.9886C81.9894 15.9886 81.7361 16.0538 81.512 16.1844C81.288 16.3114 81.1105 16.486 80.9798 16.7084C80.8487 16.9272 80.7797 17.1759 80.7728 17.4547V18.9842C80.7728 19.3157 80.8367 19.6069 80.9641 19.8574C81.0916 20.1044 81.2726 20.2967 81.5069 20.4344C81.7412 20.5719 82.0203 20.6407 82.3444 20.6407C82.5682 20.6407 82.7716 20.609 82.9544 20.5455C83.137 20.4819 83.2938 20.3884 83.4247 20.2649C83.5556 20.1414 83.6539 19.9897 83.7195 19.8097L86.0404 19.8785C85.9439 20.4114 85.7319 20.8754 85.4046 21.2705C85.0807 21.662 84.655 21.9672 84.1277 22.186C83.6006 22.4012 82.9906 22.5089 82.2978 22.5089Z"
        fill="black" />
    <path
        d="M90.4111 22.5089C89.5805 22.5089 88.8637 22.3414 88.2606 22.0062C87.661 21.6674 87.1991 21.1857 86.8752 20.5612C86.5546 19.9332 86.3945 19.187 86.3945 18.3225C86.3945 17.4829 86.5564 16.7489 86.8805 16.1209C87.2044 15.4893 87.6611 14.999 88.2503 14.6496C88.8395 14.2968 89.5341 14.1204 90.3334 14.1204C90.8987 14.1204 91.4156 14.2103 91.8843 14.3903C92.353 14.5702 92.7579 14.8366 93.0991 15.1894C93.4403 15.5422 93.7056 15.978 93.8951 16.4966C94.0847 17.0119 94.1795 17.6027 94.1795 18.2697V18.9154H87.2785V17.4124H91.8275C91.8239 17.137 91.7601 16.8919 91.6361 16.6767C91.5121 16.4614 91.3415 16.2938 91.1243 16.1738C90.9107 16.0504 90.6644 15.9886 90.3851 15.9886C90.1025 15.9886 89.8492 16.0538 89.6253 16.1844C89.4012 16.3114 89.2238 16.486 89.0927 16.7084C88.962 16.9272 88.893 17.1759 88.8861 17.4547V18.9842C88.8861 19.3157 88.9498 19.6069 89.0774 19.8574C89.2049 20.1044 89.3858 20.2967 89.6202 20.4344C89.8543 20.5719 90.1336 20.6407 90.4576 20.6407C90.6815 20.6407 90.8849 20.609 91.0675 20.5455C91.2503 20.4819 91.4071 20.3884 91.5378 20.2649C91.6689 20.1414 91.7672 19.9897 91.8326 19.8097L94.1535 19.8785C94.057 20.4114 93.8451 20.8754 93.5177 21.2705C93.1938 21.662 92.7683 21.9672 92.241 22.186C91.7137 22.4012 91.1036 22.5089 90.4111 22.5089Z"
        fill="black" />
    <path
        d="M94.8164 22.3553V14.2262H97.2719V15.7081H97.3545C97.4991 15.1718 97.7353 14.7731 98.0626 14.512C98.39 14.2474 98.7709 14.1151 99.2052 14.1151C99.3222 14.1151 99.4428 14.1239 99.5669 14.1415C99.6909 14.1556 99.8064 14.1786 99.9132 14.2103V16.4596C99.7925 16.4173 99.6341 16.3838 99.4377 16.359C99.2447 16.3343 99.0723 16.3219 98.9208 16.3219C98.6209 16.3219 98.3505 16.3908 98.1091 16.5283C97.8714 16.6625 97.6836 16.8513 97.5457 17.0947C97.4113 17.3347 97.3442 17.6168 97.3442 17.9415V22.3553H94.8164Z"
        fill="black" />
    <path fill-rule="evenodd" clip-rule="evenodd"
        d="M2.91135 2.98072H120.967V30.8503V33.831H123.878V0H0V33.831H2.91135V30.8503V2.98072Z"
        fill="black" />
</svg>
    