<svg width="121" height="32" viewBox="0 0 121 32" fill="none" xmlns="http://www.w3.org/2000/svg">
<path d="M51.232 17.86L57.448 9.7H53.632L47.872 17.116V9.7H44.56V26.5H47.872V18.628L53.872 26.5H57.688L51.232 17.86ZM70.7275 25.012C71.9515 23.788 72.5755 22.276 72.5755 20.5C72.5755 18.724 71.9515 17.236 70.7275 16.012C69.5035 14.788 67.9915 14.164 66.2155 14.164C64.4395 14.164 62.9275 14.788 61.7035 16.012C60.4795 17.236 59.8795 18.724 59.8795 20.5C59.8795 22.276 60.4795 23.788 61.7035 25.012C62.9275 26.236 64.4395 26.836 66.2155 26.836C67.9915 26.836 69.5035 26.236 70.7275 25.012ZM63.8875 22.876C63.2875 22.252 62.9755 21.46 62.9755 20.5C62.9755 19.54 63.2875 18.748 63.8875 18.124C64.5115 17.5 65.2795 17.188 66.2155 17.188C67.1515 17.188 67.9195 17.5 68.5435 18.124C69.1675 18.748 69.4795 19.54 69.4795 20.5C69.4795 21.46 69.1675 22.252 68.5435 22.876C67.9195 23.5 67.1515 23.812 66.2155 23.812C65.2795 23.812 64.5115 23.5 63.8875 22.876ZM81.8447 22.564L78.7247 14.5H75.3407L80.2607 26.116C79.6847 27.748 78.7727 28.444 77.1167 28.42V31.3C80.1887 31.468 82.2047 29.956 83.4527 26.5L87.8207 14.5H84.5087L81.8447 22.564ZM102.889 21.772C102.961 21.316 103.009 20.908 103.009 20.5C103.009 18.7 102.433 17.212 101.281 15.988C100.153 14.764 98.6894 14.164 96.9374 14.164C95.0894 14.164 93.5534 14.764 92.3774 15.988C91.2014 17.188 90.6014 18.7 90.6014 20.5C90.6014 22.324 91.2014 23.836 92.4014 25.036C93.6014 26.236 95.1854 26.836 97.1774 26.836C99.4814 26.836 101.233 25.972 102.409 24.268L99.9134 22.828C99.3134 23.62 98.4014 24.028 97.2254 24.028C95.3774 24.028 94.2494 23.284 93.8414 21.772H102.889ZM93.7934 19.372C94.1534 17.836 95.2814 16.948 96.9374 16.948C98.3534 16.948 99.5534 17.74 99.9134 19.372H93.7934ZM114.555 14.164C112.875 14.164 111.579 14.74 110.667 15.916V9.7H107.571V26.5H110.667V25.084C111.579 26.26 112.875 26.836 114.555 26.836C116.163 26.836 117.555 26.236 118.683 25.012C119.835 23.788 120.411 22.276 120.411 20.5C120.411 18.724 119.835 17.236 118.683 16.012C117.555 14.788 116.163 14.164 114.555 14.164ZM111.603 22.948C110.979 22.3 110.667 21.484 110.667 20.5C110.667 19.516 110.979 18.7 111.603 18.076C112.227 17.428 113.019 17.116 113.979 17.116C114.939 17.116 115.731 17.428 116.355 18.076C117.003 18.7 117.315 19.516 117.315 20.5C117.315 21.484 117.003 22.3 116.355 22.948C115.731 23.572 114.939 23.884 113.979 23.884C113.019 23.884 112.227 23.572 111.603 22.948Z" fill="#121212"/>
<path d="M17.1447 7.77773L33.3102 17.0856V9.31827L17.1344 0L1 9.3286V17.1063L17.1447 7.77773Z" fill="#121212"/>
<path d="M30.7245 26.446L33.3102 24.9253V20.1572L17.1344 10.8286L1 20.1572V24.946L3.58567 26.446L17.1344 18.6063L30.7245 26.446Z" fill="#121212"/>
<path d="M17.1448 29.6315L21.2504 32L27.9942 28.1211L17.1345 21.8538L6.31616 28.1211L13.0591 32L17.1448 29.6315Z" fill="#121212"/>
</svg>
